<svg xmlns:xlink="http://www.w3.org/1999/xlink" width="3.519ex" height="3.343ex" style="font-size: 15px; vertical-align: -0.838ex;" viewBox="0 -1078.4 1515.2 1439.2" role="img" focusable="false" xmlns="http://www.w3.org/2000/svg">
<defs>
<path stroke-width="1" id="E1-MJCAL-41" d="M576 668Q576 688 606 708T660 728Q676 728 675 712V571Q675 409 688 252Q696 122 720 57Q722 53 723 50T728 46T732 43T737 41T743 39L754 45Q788 61 803 61Q819 61 819 47Q818 43 814 35Q799 15 755 -7T675 -30Q659 -30 648 -25T630 -8T621 11T614 34Q603 77 599 106T594 146T591 160V163H460L329 164L316 145Q241 35 196 -7T119 -50T59 -24T30 43Q30 75 46 100T74 125Q81 125 83 120T88 104T96 84Q118 57 151 57Q189 57 277 182Q432 400 542 625L559 659H567Q574 659 575 660T576 668ZM584 249Q579 333 577 386T575 473T574 520V581L563 560Q497 426 412 290L372 228L370 224H371L383 228L393 232H586L584 249Z"></path>
<path stroke-width="1" id="E1-MJCAL-54" d="M49 475Q34 475 34 490Q34 552 106 611T261 681Q272 683 507 683H742Q790 717 816 717Q833 717 833 708Q833 682 795 653T714 615Q691 610 588 609Q490 609 490 607L483 580Q476 554 462 496T435 392Q410 289 395 231T363 116T335 34T309 -15T279 -47T242 -64Q231 -68 218 -68Q203 -68 203 -57Q203 -52 211 -38Q224 -7 234 20T251 66T268 123T283 179T304 261T328 360Q342 415 360 488Q380 567 384 582T397 605Q400 607 401 609H302H244Q200 609 188 607T167 596Q145 572 145 541Q145 520 109 498T49 475Z"></path>
<path stroke-width="1" id="E1-MJMATHI-74" d="M26 385Q19 392 19 395Q19 399 22 411T27 425Q29 430 36 430T87 431H140L159 511Q162 522 166 540T173 566T179 586T187 603T197 615T211 624T229 626Q247 625 254 615T261 596Q261 589 252 549T232 470L222 433Q222 431 272 431H323Q330 424 330 420Q330 398 317 385H210L174 240Q135 80 135 68Q135 26 162 26Q197 26 230 60T283 144Q285 150 288 151T303 153H307Q322 153 322 145Q322 142 319 133Q314 117 301 95T267 48T216 6T155 -11Q125 -11 98 4T59 56Q57 64 57 83V101L92 241Q127 382 128 383Q128 385 77 385H26Z"></path>
</defs>
<g stroke="currentColor" fill="currentColor" stroke-width="0" transform="matrix(1 0 0 -1 0 0)">
 <use xlink:href="#E1-MJCAL-41" x="0" y="0"></use>
 <use transform="scale(0.707)" xlink:href="#E1-MJCAL-54" x="1167" y="644"></use>
 <use transform="scale(0.707)" xlink:href="#E1-MJMATHI-74" x="1129" y="-350"></use>
</g>
</svg>